<?xml version="1.0" encoding="utf-8"?>
<!-- Generator: Adobe Illustrator 21.1.0, SVG Export Plug-In . SVG Version: 6.00 Build 0)  -->
<svg version="1.1" id="Layer_1" xmlns="http://www.w3.org/2000/svg" xmlns:xlink="http://www.w3.org/1999/xlink" x="0px" y="0px"
	 viewBox="0 0 18 17" style="enable-background:new 0 0 18 17;" xml:space="preserve">
<style type="text/css">
	.st0{fill-rule:evenodd;clip-rule:evenodd;fill:#F7A01F;}
</style>
<path class="st0" d="M9,2C5.4,2,2.5,4.9,2.5,8.5C2.5,12.1,5.4,15,9,15c3.6,0,6.5-2.9,6.5-6.5C15.5,4.9,12.6,2,9,2 M12,7.4l-3.3,3.3
	c-0.3,0.3-0.8,0.3-1.1,0L6,9C5.7,8.7,5.7,8.2,6,7.9c0.3-0.3,0.8-0.3,1.1,0L8.2,9l2.7-2.7C11.2,6,11.7,6,12,6.3
	C12.3,6.6,12.3,7.1,12,7.4"/>
</svg>
