<?xml version="1.0" encoding="utf-8"?>
<!-- Generator: Adobe Illustrator 21.1.0, SVG Export Plug-In . SVG Version: 6.00 Build 0)  -->
<svg version="1.1" id="Layer_1" xmlns="http://www.w3.org/2000/svg" xmlns:xlink="http://www.w3.org/1999/xlink" x="0px" y="0px"
	 viewBox="0 0 88 51" style="enable-background:new 0 0 88 51;" xml:space="preserve">
<style type="text/css">
	.st0{fill:#F99B2B;}
	.st1{fill:#FFFFFF;}
</style>
<path class="st0" d="M10.6,46.8H78c3,0,5.3-2.4,5.3-5.3V10.8c0-3-2.4-5.3-5.3-5.3H10.6c-3,0-5.3,2.4-5.3,5.3v30.7
	C5.2,44.4,7.6,46.8,10.6,46.8"/>
<polygon class="st1" points="21.6,18.3 21.6,25.2 30.6,25.2 30.6,29.3 21.6,29.3 21.6,39.2 16.4,39.2 16.4,14.3 32.3,14.3 
	32.3,18.3 "/>
<path class="st1" d="M50.1,34.9c0.5,0,0.9,0.1,1.2,0.4c0.3,0.3,0.4,0.7,0.4,1.1v2.8H34.4v-1.5c0-0.3,0.1-0.6,0.2-1
	c0.1-0.3,0.3-0.7,0.6-1l7.4-7.4c0.6-0.6,1.2-1.2,1.7-1.8c0.5-0.6,0.9-1.1,1.2-1.7c0.3-0.6,0.6-1.1,0.7-1.7c0.2-0.6,0.2-1.2,0.2-1.8
	c0-1.1-0.3-2-0.9-2.5c-0.6-0.6-1.4-0.9-2.4-0.9c-0.5,0-0.9,0.1-1.3,0.2c-0.4,0.1-0.7,0.3-1,0.5s-0.6,0.5-0.8,0.8
	c-0.2,0.3-0.4,0.6-0.5,1c-0.2,0.6-0.5,1-0.8,1.1c-0.3,0.2-0.8,0.2-1.5,0.1l-2.5-0.4c0.2-1.2,0.5-2.3,1-3.2c0.5-0.9,1.1-1.7,1.9-2.3
	c0.8-0.6,1.6-1.1,2.6-1.4c1-0.3,2-0.5,3.1-0.5c1.2,0,2.3,0.2,3.2,0.5c1,0.3,1.8,0.8,2.5,1.5c0.7,0.6,1.2,1.4,1.6,2.3
	c0.4,0.9,0.6,1.9,0.6,2.9c0,0.9-0.1,1.8-0.4,2.5c-0.3,0.8-0.6,1.5-1.1,2.2c-0.5,0.7-1,1.4-1.6,2.1c-0.6,0.7-1.2,1.3-1.9,2l-5.3,5.4
	c0.6-0.2,1.2-0.3,1.7-0.4c0.6-0.1,1.1-0.1,1.6-0.1H50.1z"/>
<polygon class="st1" points="61,18.3 61,25.2 69.9,25.2 69.9,29.3 61,29.3 61,39.2 55.8,39.2 55.8,14.3 71.6,14.3 71.6,18.3 "/>
</svg>
