<?xml version="1.0" encoding="utf-8"?>
<!-- Generator: Adobe Illustrator 21.1.0, SVG Export Plug-In . SVG Version: 6.00 Build 0)  -->
<svg version="1.1" id="Layer_1" xmlns="http://www.w3.org/2000/svg" xmlns:xlink="http://www.w3.org/1999/xlink" x="0px" y="0px"
	 viewBox="0 0 39 40" style="enable-background:new 0 0 39 40;" xml:space="preserve">
<style type="text/css">
	.st0{fill:#212121;}
</style>
<path class="st0" d="M19.1,8.5c3.6,0,4.1,0,5.5,0.1c1.3,0.1,2.1,0.3,2.5,0.5c0.6,0.2,1.1,0.5,1.6,1c0.5,0.5,0.8,0.9,1,1.6
	c0.2,0.5,0.4,1.2,0.5,2.5c0.1,1.4,0.1,1.9,0.1,5.5c0,3.6,0,4.1-0.1,5.5c-0.1,1.3-0.3,2.1-0.5,2.5c-0.2,0.6-0.5,1.1-1,1.6
	c-0.5,0.5-0.9,0.8-1.6,1c-0.5,0.2-1.2,0.4-2.5,0.5c-1.4,0.1-1.9,0.1-5.5,0.1c-3.6,0-4.1,0-5.5-0.1c-1.3-0.1-2.1-0.3-2.5-0.5
	c-0.6-0.2-1.1-0.5-1.6-1c-0.5-0.5-0.8-0.9-1-1.6c-0.2-0.5-0.4-1.2-0.5-2.5c-0.1-1.4-0.1-1.9-0.1-5.5c0-3.6,0-4.1,0.1-5.5
	c0.1-1.3,0.3-2.1,0.5-2.5c0.2-0.6,0.5-1.1,1-1.6c0.5-0.5,0.9-0.8,1.6-1c0.5-0.2,1.2-0.4,2.5-0.5C15,8.5,15.5,8.5,19.1,8.5 M19.1,6
	c-3.7,0-4.2,0-5.6,0.1C12,6.2,11,6.4,10.2,6.8C9.3,7.1,8.5,7.6,7.8,8.3C7,9.1,6.5,9.9,6.2,10.7c-0.3,0.9-0.6,1.9-0.6,3.3
	c-0.1,1.5-0.1,1.9-0.1,5.6c0,3.7,0,4.2,0.1,5.6c0.1,1.5,0.3,2.4,0.6,3.3C6.5,29.5,7,30.3,7.8,31c0.8,0.8,1.5,1.2,2.4,1.6
	c0.9,0.3,1.9,0.6,3.3,0.6c1.5,0.1,1.9,0.1,5.6,0.1c3.7,0,4.2,0,5.6-0.1c1.5-0.1,2.4-0.3,3.3-0.6c0.9-0.3,1.7-0.8,2.4-1.6
	c0.8-0.8,1.2-1.5,1.6-2.4c0.3-0.9,0.6-1.9,0.6-3.3c0.1-1.5,0.1-1.9,0.1-5.6c0-3.7,0-4.2-0.1-5.6c-0.1-1.5-0.3-2.4-0.6-3.3
	c-0.3-0.9-0.8-1.7-1.6-2.4c-0.8-0.8-1.5-1.2-2.4-1.6c-0.9-0.3-1.9-0.6-3.3-0.6C23.3,6.1,22.8,6,19.1,6"/>
<path class="st0" d="M19.1,12.7c-3.9,0-7,3.1-7,7c0,3.9,3.1,7,7,7c3.9,0,7-3.1,7-7C26.1,15.8,23,12.7,19.1,12.7 M19.1,24.2
	c-2.5,0-4.6-2-4.6-4.5c0-2.5,2-4.5,4.6-4.5c2.5,0,4.5,2,4.5,4.5C23.7,22.2,21.6,24.2,19.1,24.2"/>
<path class="st0" d="M28,12.4c0,0.9-0.7,1.6-1.6,1.6c-0.9,0-1.6-0.7-1.6-1.6c0-0.9,0.7-1.6,1.6-1.6C27.3,10.8,28,11.5,28,12.4"/>
</svg>
