<?xml version="1.0" encoding="utf-8"?>
<!-- Generator: Adobe Illustrator 20.1.0, SVG Export Plug-In . SVG Version: 6.00 Build 0)  -->
<svg version="1.1" id="Слой_1" xmlns="http://www.w3.org/2000/svg" xmlns:xlink="http://www.w3.org/1999/xlink" x="0px" y="0px"
	 viewBox="0 0 303.5 177.7" style="enable-background:new 0 0 303.5 177.7;" xml:space="preserve">
<style type="text/css">
	.st0{clip-path:url(#SVGID_2_);}
	.st1{fill:#EA8C11;}
	.st2{fill:#F7A01F;}
	.st3{fill:#F7AA46;}
	.st4{fill:#F9B767;}
	.st5{fill:#FFD999;}
</style>
<title>Ресурс 4</title>
<g id="Слой_2">
	<g id="Layer_1">
		<g>
			<defs>
				<rect id="SVGID_1_" x="0" width="303.4" height="177.7"/>
			</defs>
			<clipPath id="SVGID_2_">
				<use xlink:href="#SVGID_1_"  style="overflow:visible;"/>
			</clipPath>
			<g class="st0">
				<circle class="st1" cx="151.3" cy="88.7" r="182"/>
				<circle class="st2" cx="151.3" cy="88.7" r="132.6"/>
				<circle class="st3" cx="151.3" cy="88.7" r="98.5"/>
				<circle class="st4" cx="151.6" cy="88.6" r="63.6"/>
			</g>
		</g>
		<path class="st5" d="M151.7,82.6c-3.4,0-6.2,2.8-6.2,6.2c0,3,2.1,5.5,5,6.1v5.3c0,0.7,0.5,1.2,1.2,1.2c0.7,0,1.2-0.5,1.2-1.2V95
			c3.4-0.7,5.6-4,4.9-7.3C157.2,84.7,154.7,82.6,151.7,82.6z M151.7,92.7c-2.1,0-3.8-1.7-3.8-3.8s1.7-3.8,3.8-3.8s3.8,1.7,3.8,3.8
			C155.6,91,153.8,92.7,151.7,92.7L151.7,92.7z"/>
		<path class="st5" d="M140.4,75.8c-0.5-0.5-1.2-0.5-1.7,0c-7.2,7.2-7.2,18.8,0,26c0.4,0.5,1.2,0.5,1.7,0.1c0.5-0.4,0.5-1.2,0.1-1.7
			c0,0-0.1-0.1-0.1-0.1c-6.3-6.2-6.3-16.4,0-22.6c0,0,0,0,0,0C140.9,77,140.9,76.3,140.4,75.8z"/>
		<path class="st5" d="M164.7,75.8c-0.5-0.4-1.3-0.4-1.7,0.2c-0.4,0.4-0.4,1.1,0,1.5c6.3,6.2,6.3,16.4,0,22.6c0,0,0,0,0,0
			c-0.4,0.5-0.4,1.3,0.1,1.7c0.5,0.4,1.2,0.4,1.6,0C171.9,94.7,171.9,83,164.7,75.8L164.7,75.8z"/>
		<path class="st5" d="M126.8,88.8c0-6.6,2.6-12.9,7.3-17.6c0.4-0.5,0.4-1.3-0.2-1.7c-0.4-0.4-1.1-0.4-1.5,0
			c-10.7,10.7-10.7,27.9,0,38.6c0,0,0,0,0,0c0.4,0.5,1.2,0.5,1.7,0.1c0.5-0.4,0.5-1.2,0.1-1.7c0,0-0.1-0.1-0.1-0.1
			C129.5,101.8,126.8,95.4,126.8,88.8z"/>
		<path class="st5" d="M171,69.5c-0.4-0.5-1.2-0.6-1.7-0.2s-0.6,1.2-0.2,1.7c0,0.1,0.1,0.1,0.2,0.2c9.7,9.7,9.7,25.5,0,35.2
			c-0.4,0.5-0.4,1.3,0.1,1.7c0.5,0.4,1.2,0.4,1.6,0C181.7,97.5,181.7,80.2,171,69.5z"/>
		<path class="st5" d="M127.2,64.3c0.4-0.5,0.4-1.3-0.2-1.7c-0.4-0.4-1.1-0.4-1.5,0c-14.5,14.5-14.5,38,0,52.5
			c0.5,0.4,1.2,0.4,1.7-0.1c0.4-0.5,0.4-1.2,0-1.6C113.6,99.8,113.6,77.9,127.2,64.3z"/>
		<path class="st5" d="M178,62.6c-0.4-0.5-1.2-0.6-1.7-0.2s-0.6,1.2-0.2,1.7c0,0.1,0.1,0.1,0.2,0.2c13.5,13.6,13.5,35.6,0,49.1
			c-0.4,0.5-0.4,1.3,0.1,1.7c0.5,0.4,1.2,0.4,1.6,0C192.5,100.6,192.5,77.1,178,62.6C178,62.6,178,62.6,178,62.6L178,62.6z"/>
	</g>
</g>
</svg>
