<?xml version="1.0" encoding="utf-8"?>
<!-- Generator: Adobe Illustrator 21.1.0, SVG Export Plug-In . SVG Version: 6.00 Build 0)  -->
<svg version="1.1" id="Layer_1" xmlns="http://www.w3.org/2000/svg" xmlns:xlink="http://www.w3.org/1999/xlink" x="0px" y="0px"
	 viewBox="0 0 39 40" style="enable-background:new 0 0 39 40;" xml:space="preserve">
<style type="text/css">
	.st0{fill:#212121;}
</style>
<g>
	<path class="st0" d="M36.3,9.7c-1.2,0.5-2.5,0.9-3.8,1c1.4-0.8,2.4-2.1,2.9-3.7c-1.3,0.8-2.7,1.3-4.2,1.6c-1.2-1.3-2.9-2.1-4.8-2.1
		c-3.7,0-6.6,3-6.6,6.6c0,0.5,0.1,1,0.2,1.5c-5.5-0.3-10.4-2.9-13.7-6.9c-0.6,1-0.9,2.1-0.9,3.3c0,2.3,1.5,4.3,3.3,5.5
		c-1.1,0-2.6-0.3-2.6-0.8v0.1c0,3.2,1.9,5.9,5,6.5c-0.6,0.1-1.3,0.2-1.9,0.2c-0.4,0-0.9,0-1.3-0.1c0.8,2.6,3.2,4.5,6.1,4.6
		c-2.3,1.8-5.1,2.8-8.2,2.8c-0.5,0-1.1,0-1.6-0.1c2.9,1.9,6.4,3,10.2,3C26.3,32.8,33,22.7,33,14c0-0.3,0-0.6,0-0.9
		C34.3,12.2,35.4,11,36.3,9.7"/>
</g>
</svg>
